<?xml version="1.0" encoding="UTF-8" standalone="no"?>
<svg
   xmlns:dc="http://purl.org/dc/elements/1.1/"
   xmlns:cc="http://creativecommons.org/ns#"
   xmlns:rdf="http://www.w3.org/1999/02/22-rdf-syntax-ns#"
   xmlns:svg="http://www.w3.org/2000/svg"
   xmlns="http://www.w3.org/2000/svg"
   xmlns:sodipodi="http://sodipodi.sourceforge.net/DTD/sodipodi-0.dtd"
   xmlns:inkscape="http://www.inkscape.org/namespaces/inkscape"
   inkscape:version="1.0 (4035a4fb49, 2020-05-01)"
   sodipodi:docname="logosvg.svg"
   id="svg22"
   preserveAspectRatio="xMidYMid meet"
   viewBox="0 0 750.000000 780.000000"
   height="780.000000pt"
   width="750.000000pt"
   version="1.0">
  <defs
     id="defs26" />
  <sodipodi:namedview
     inkscape:current-layer="svg22"
     inkscape:window-maximized="1"
     inkscape:window-y="-9"
     inkscape:window-x="-9"
     inkscape:cy="517.63636"
     inkscape:cx="500"
     inkscape:zoom="0.84615385"
     showgrid="false"
     id="namedview24"
     inkscape:window-height="1051"
     inkscape:window-width="1920"
     inkscape:pageshadow="2"
     inkscape:pageopacity="0"
     guidetolerance="10"
     gridtolerance="10"
     objecttolerance="10"
     borderopacity="1"
     bordercolor="#666666"
     pagecolor="#ffffff" />
  <metadata
     id="metadata2">
Created by potrace 1.16, written by Peter Selinger 2001-2019
<rdf:RDF>
  <cc:Work
     rdf:about="">
    <dc:format>image/svg+xml</dc:format>
    <dc:type
       rdf:resource="http://purl.org/dc/dcmitype/StillImage" />
    <dc:title></dc:title>
  </cc:Work>
</rdf:RDF>
</metadata>
  <g
     id="g20"
     stroke="none"
     fill="#000000"
     transform="translate(0.000000,780.000000) scale(0.100000,-0.100000)">
    <path
       id="path4"
       d="M632 4648 c-19 -19 -17 -1481 2 -1497 10 -8 831 -10 3117 -9 l3104 3 0 755 0 755 -3105 3 c-2408 1 -3109 -1 -3118 -10z m6081 -138 c4 0 7 -271 7 -603 0 -456 -3 -606 -12 -615 -9 -9 -680 -12 -2959 -12 -1621 0 -2954 3 -2963 6 -14 6 -16 69 -16 614 0 397 3 609 10 612 5 2 1341 2 2967 1 1627 -2 2961 -3 2966 -3z" />
    <path
       id="path6"
       d="M6177 4290 c-105 -41 -157 -111 -157 -210 0 -101 61 -165 215 -226 130 -52 155 -74 155 -137 0 -23 -8 -41 -26 -58 -23 -22 -34 -24 -117 -24 -76 0 -99 4 -134 23 -57 30 -72 28 -87 -10 -31 -74 -30 -75 16 -99 103 -53 254 -65 352 -29 98 37 156 129 142 229 -13 92 -77 153 -223 211 -113 45 -153 79 -153 129 0 44 29 76 79 91 37 10 130 -4 174 -27 36 -18 50 -7 67 53 16 56 12 61 -76 85 -86 24 -165 24 -227 -1z" />
    <path
       id="path8"
       d="M997 4294 c-4 -4 -7 -182 -7 -396 l0 -388 253 2 252 3 3 58 c2 31 2 58 0 59 -2 1 -84 4 -183 7 l-180 6 -3 88 c-1 48 1 87 5 87 4 0 76 2 158 3 83 2 156 6 163 10 16 11 16 92 -1 106 -8 6 -75 12 -168 13 l-154 3 0 105 0 105 183 3 183 2 -3 63 -3 62 -246 3 c-135 1 -248 -1 -252 -4z" />
    <path
       id="path10"
       d="M1812 4288 c-9 -12 -12 -102 -10 -394 l3 -379 164 -3 c90 -1 189 2 220 8 129 23 245 111 299 228 24 50 27 70 27 157 0 87 -4 107 -26 155 -47 101 -122 168 -234 209 -51 19 -87 23 -245 28 -158 5 -187 4 -198 -9z m379 -134 c67 -20 148 -97 167 -160 31 -105 5 -214 -69 -284 -59 -56 -114 -71 -240 -68 l-104 3 -3 250 c-1 137 0 255 3 262 7 19 178 17 246 -3z" />
    <path
       id="path12"
       d="M2813 4289 c-10 -10 -13 -101 -13 -383 0 -204 4 -377 9 -384 5 -9 26 -12 67 -10 l59 3 5 110 5 110 58 3 c75 4 95 -9 146 -95 60 -105 105 -134 203 -134 68 -1 78 7 78 61 0 47 -8 57 -54 65 -28 6 -52 21 -82 53 -62 65 -63 75 -11 125 146 142 101 389 -83 458 -70 26 -366 40 -387 18z m324 -139 c77 -34 106 -129 65 -210 -28 -55 -72 -75 -172 -75 l-85 0 -3 140 c-1 76 0 145 2 152 9 21 142 17 193 -7z" />
    <path
       id="path14"
       d="M3702 4288 c-14 -14 -17 -744 -3 -766 5 -9 26 -12 67 -10 l59 3 3 384 c2 301 -1 386 -10 393 -20 12 -103 9 -116 -4z" />
    <path
       id="path16"
       d="M4165 4287 c-3 -6 -4 -183 -3 -392 l3 -380 65 0 65 0 5 230 c3 127 9 229 13 228 5 0 117 -106 249 -235 132 -128 245 -233 251 -233 9 0 12 102 12 395 l0 395 -60 0 -60 0 -5 -240 c-4 -179 -8 -239 -17 -238 -7 2 -90 83 -185 180 -95 98 -200 206 -234 241 -59 60 -89 75 -99 49z" />
    <path
       id="path18"
       d="M5178 4289 c-17 -9 -18 -38 -18 -379 0 -202 3 -375 6 -384 5 -12 21 -16 70 -16 l64 0 0 154 c0 94 4 157 10 161 6 4 86 -66 178 -154 l167 -161 72 0 c39 0 74 4 77 9 4 5 -73 85 -169 178 -96 92 -177 174 -180 180 -2 7 57 82 132 165 199 224 209 238 192 249 -8 6 -42 8 -77 6 -61 -3 -64 -4 -105 -52 -171 -198 -274 -310 -282 -308 -6 2 -11 77 -13 175 -2 122 -6 174 -15 180 -17 11 -89 9 -109 -3z" />
  </g>
  <path
     transform="scale(0.75)"
     id="path851"
     d="M 133.04545,520.13784 V 468 h 33.09091 33.09091 v 7.68182 7.68182 h -16.963 c -9.32965,0 -20.23192,0.34167 -24.22727,0.75926 l -7.26427,0.75927 v 14.01346 14.01346 l 4.43182,0.0884 c 13.80348,0.2754 38.07165,1.8393 38.72808,2.49573 1.39036,1.39035 1.86902,9.79079 0.66085,11.59767 -0.94734,1.41679 -5.4063,1.91562 -22.20759,2.48439 -11.56224,0.39141 -21.15521,0.79028 -21.31771,0.88636 -0.1625,0.0961 -0.29545,5.41712 -0.29545,11.82453 v 11.64982 l 7.26427,0.75927 c 3.99535,0.4176 13.23569,0.75927 20.53409,0.75927 7.2984,0 14.93175,0.33238 16.963,0.73863 3.63346,0.72669 3.69318,0.85091 3.69318,7.68182 v 6.94318 l -30.43182,0.0161 c -16.7375,0.009 -31.6284,0.33681 -33.0909,0.72875 l -2.6591,0.7126 z"
     style="opacity:0.93;fill:#ff0000;stroke:#00efef;stroke-width:1.18368" />
</svg>
